<?xml version="1.0" standalone="no"?>
<!DOCTYPE svg PUBLIC "-//W3C//DTD SVG 20010904//EN"
 "http://www.w3.org/TR/2001/REC-SVG-20010904/DTD/svg10.dtd">
<svg version="1.0" xmlns="http://www.w3.org/2000/svg"
 width="512.000000pt" height="512.000000pt" viewBox="0 0 512.000000 512.000000"
 preserveAspectRatio="xMidYMid meet">

<g transform="translate(0.000000,512.000000) scale(0.100000,-0.100000)"
fill="#20e0e0" stroke="none">
<path d="M4650 4728 c-47 -45 -171 -166 -275 -270 -105 -103 -199 -188 -208
-188 -20 0 -132 -115 -260 -265 -45 -52 -86 -95 -92 -95 -6 0 -44 -34 -85 -76
-68 -68 -78 -75 -106 -69 -28 5 -36 0 -76 -47 -25 -29 -51 -64 -58 -78 -7 -13
-44 -57 -81 -97 -38 -39 -69 -80 -69 -90 0 -22 -21 -52 -121 -171 -42 -50 -79
-88 -82 -85 -14 14 -64 -37 -195 -200 -77 -96 -147 -183 -155 -193 -181 -225
-192 -232 -246 -167 -17 21 -31 41 -31 45 0 4 -16 32 -35 62 -19 30 -35 58
-35 62 0 3 -16 28 -35 54 -19 26 -35 51 -35 55 0 3 -15 27 -32 53 -34 48 -51
76 -103 171 -31 57 -122 160 -111 127 5 -14 2 -17 -10 -12 -8 3 -17 6 -19 6
-5 0 -195 245 -219 283 -14 20 -15 31 -8 40 18 21 -13 57 -128 152 -74 61
-106 82 -108 71 -5 -24 -13 -20 -85 34 -36 28 -72 50 -79 50 -7 0 -58 52 -112
115 -103 120 -157 168 -164 147 -5 -15 -80 48 -184 155 -49 50 -87 81 -98 80
-18 -2 -111 68 -397 296 -74 59 -137 106 -139 104 -6 -6 207 -268 362 -444 51
-58 66 -82 44 -68 -6 3 -10 1 -10 -6 0 -6 57 -71 128 -143 160 -165 236 -257
220 -268 -7 -4 -10 -9 -8 -12 3 -3 50 -51 105 -108 55 -57 119 -125 143 -153
42 -50 88 -132 80 -141 -6 -5 -133 33 -168 51 -14 7 -36 16 -48 20 -22 6 -23
5 -12 -15 32 -60 97 -116 322 -280 49 -35 88 -71 89 -80 1 -16 93 -99 353
-315 34 -28 91 -89 128 -135 90 -112 88 -114 -92 -105 -78 3 -293 0 -510 -9
-206 -9 -449 -19 -538 -23 -91 -3 -157 -10 -150 -14 8 -5 125 -13 259 -19 134
-5 307 -14 384 -20 267 -18 401 -20 554 -7 173 14 178 12 140 -50 -25 -41
-247 -273 -261 -273 -18 0 -296 -291 -341 -357 -27 -40 -58 -78 -70 -86 -33
-22 -198 -189 -192 -195 2 -3 32 9 65 27 33 18 64 29 70 26 11 -7 -8 -48 -37
-80 -10 -11 -36 -43 -58 -70 -22 -28 -52 -63 -67 -80 -76 -85 -177 -212 -250
-315 -136 -190 -344 -463 -499 -653 -48 -59 -29 -65 32 -11 31 27 93 81 139
119 118 100 369 328 456 415 3 2 2 -3 -2 -13 -9 -25 13 -21 50 9 17 14 110
103 205 197 96 94 195 189 219 210 40 34 46 36 61 23 20 -18 36 -8 79 56 18
25 81 100 142 165 67 72 108 124 105 133 -3 9 32 54 90 115 52 55 107 120 121
145 15 25 38 61 53 80 14 19 33 46 41 60 8 14 30 51 48 82 18 31 40 62 47 68
8 7 15 17 15 22 0 6 13 27 30 48 17 21 30 41 30 45 0 4 19 38 42 75 69 111 90
105 208 -50 47 -61 99 -128 115 -149 17 -21 37 -49 45 -61 8 -12 29 -40 45
-60 113 -143 126 -162 121 -178 -4 -12 4 -29 22 -48 15 -16 45 -51 67 -77 21
-26 51 -57 68 -69 l29 -21 -7 22 c-13 42 12 19 100 -91 49 -62 92 -115 95
-118 23 -21 66 -87 63 -97 -4 -11 74 -98 201 -224 53 -52 73 -66 82 -58 19 15
48 -8 188 -150 88 -89 123 -118 132 -111 8 8 26 -5 65 -46 30 -31 115 -111
189 -177 74 -67 190 -173 258 -236 121 -114 142 -131 142 -114 0 9 -116 163
-300 398 -63 81 -137 177 -164 214 -41 54 -132 167 -215 265 -15 18 -15 18 7
11 21 -6 22 -5 13 12 -5 10 -40 50 -77 88 -103 108 -194 217 -194 233 0 10 12
7 46 -12 26 -14 49 -26 51 -26 5 0 -44 69 -56 80 -4 3 -42 48 -86 100 -44 52
-84 100 -90 106 -5 6 -32 37 -60 69 -27 32 -57 66 -65 75 -8 8 -33 37 -54 63
-32 39 -37 50 -26 57 15 9 -22 48 -236 250 -66 63 -154 173 -154 194 0 3 69 3
153 -1 95 -4 265 0 457 11 168 9 386 19 485 23 221 8 188 16 -130 32 -126 7
-284 17 -350 23 -66 5 -225 13 -353 17 l-233 6 71 85 c69 82 270 283 358 357
44 37 52 53 27 53 -27 0 -16 30 28 78 121 134 257 312 257 336 0 12 60 82 163
191 45 47 48 58 33 96 -4 9 4 30 21 52 321 421 683 923 683 946 0 21 -16 10
-100 -71z"/>
</g>
</svg>
