<svg xmlns="http://www.w3.org/2000/svg" version="1.1" xmlns:xlink="http://www.w3.org/1999/xlink" xmlns:svgjs="http://svgjs.dev/svgjs" viewBox="0 0 800 800" width="200" height="200">
    <g stroke-width="0.5" stroke="hsla(0, 0%, 100%, 1.00)" fill="none">
        <line x1="0" y1="0" x2="266.6666666666667" y2="266.6666666666667"></line>
        <line x1="266.6666666666667" y1="0" x2="0" y2="266.6666666666667"></line>
        <line x1="266.6666666666667" y1="0" x2="533.3333333333334" y2="266.6666666666667"></line>
        <line x1="533.3333333333334" y1="0" x2="266.6666666666667" y2="266.6666666666667"></line>
        <line x1="533.3333333333334" y1="0" x2="800" y2="266.6666666666667"></line>
        <line x1="800" y1="0" x2="533.3333333333334" y2="266.6666666666667"></line>
        <line x1="800" y1="0" x2="1066.6666666666667" y2="266.6666666666667"></line>
        <line x1="1066.6666666666667" y1="0" x2="800" y2="266.6666666666667"></line>
        <line x1="0" y1="266.6666666666667" x2="266.6666666666667" y2="533.3333333333334"></line>
        <line x1="266.6666666666667" y1="266.6666666666667" x2="0" y2="533.3333333333334"></line>
        <line x1="266.6666666666667" y1="266.6666666666667" x2="533.3333333333334" y2="533.3333333333334"></line>
        <line x1="533.3333333333334" y1="266.6666666666667" x2="266.6666666666667" y2="533.3333333333334"></line>
        <line x1="533.3333333333334" y1="266.6666666666667" x2="800" y2="533.3333333333334"></line>
        <line x1="800" y1="266.6666666666667" x2="533.3333333333334" y2="533.3333333333334"></line>
        <line x1="800" y1="266.6666666666667" x2="1066.6666666666667" y2="533.3333333333334"></line>
        <line x1="1066.6666666666667" y1="266.6666666666667" x2="800" y2="533.3333333333334"></line>
        <line x1="0" y1="533.3333333333334" x2="266.6666666666667" y2="800"></line>
        <line x1="266.6666666666667" y1="533.3333333333334" x2="0" y2="800"></line>
        <line x1="266.6666666666667" y1="533.3333333333334" x2="533.3333333333334" y2="800"></line>
        <line x1="533.3333333333334" y1="533.3333333333334" x2="266.6666666666667" y2="800"></line>
        <line x1="533.3333333333334" y1="533.3333333333334" x2="800" y2="800"></line>
        <line x1="800" y1="533.3333333333334" x2="533.3333333333334" y2="800"></line>
        <line x1="800" y1="533.3333333333334" x2="1066.6666666666667" y2="800"></line>
        <line x1="1066.6666666666667" y1="533.3333333333334" x2="800" y2="800"></line>
        <line x1="0" y1="800" x2="266.6666666666667" y2="1066.6666666666667"></line>
        <line x1="266.6666666666667" y1="800" x2="0" y2="1066.6666666666667"></line>
        <line x1="266.6666666666667" y1="800" x2="533.3333333333334" y2="1066.6666666666667"></line>
        <line x1="533.3333333333334" y1="800" x2="266.6666666666667" y2="1066.6666666666667"></line>
        <line x1="533.3333333333334" y1="800" x2="800" y2="1066.6666666666667"></line>
        <line x1="800" y1="800" x2="533.3333333333334" y2="1066.6666666666667"></line>
        <line x1="800" y1="800" x2="1066.6666666666667" y2="1066.6666666666667"></line>
        <line x1="1066.6666666666667" y1="800" x2="800" y2="1066.6666666666667"></line>
    </g>
</svg>