<?xml version="1.0" standalone="no"?>
<!DOCTYPE svg PUBLIC "-//W3C//DTD SVG 20010904//EN"
 "http://www.w3.org/TR/2001/REC-SVG-20010904/DTD/svg10.dtd">
<svg version="1.0" xmlns="http://www.w3.org/2000/svg"
 width="314.000000pt" height="88.000000pt" viewBox="0 0 314.000000 88.000000"
 preserveAspectRatio="xMidYMid meet">

<g transform="translate(0.000000,88.000000) scale(0.100000,-0.100000)"
fill="#000000" stroke="none">
<path d="M1770 445 l0 -265 65 0 65 0 0 265 0 265 -65 0 -65 0 0 -265z"/>
<path d="M2000 445 l0 -265 65 0 65 0 0 265 0 265 -65 0 -65 0 0 -265z"/>
<path d="M2520 445 l0 -265 65 0 65 0 0 183 c0 100 4 188 9 195 6 10 20 3 59
-28 46 -36 52 -45 52 -78 0 -32 -6 -43 -45 -75 l-45 -38 0 -79 0 -80 33 0 c26
1 47 15 120 84 l87 84 0 94 0 93 -94 88 -94 87 -106 0 -106 0 0 -265z"/>
<path d="M297 532 c-71 -72 -67 -94 28 -161 41 -28 75 -56 75 -61 0 -5 -10
-16 -22 -24 -20 -14 -24 -14 -54 9 -18 14 -38 25 -44 25 -18 0 -70 -30 -70
-40 0 -5 23 -28 51 -50 47 -37 56 -40 113 -40 61 0 63 1 109 48 62 63 65 100
10 137 -21 14 -55 36 -75 50 -42 28 -44 32 -22 60 12 16 18 17 32 7 58 -41 74
-45 109 -28 18 9 33 21 33 28 -1 7 -26 30 -56 51 -48 32 -63 37 -112 37 -56 0
-60 -2 -105 -48z"/>
<path d="M697 522 l-47 -48 0 -147 0 -147 60 0 60 0 0 113 c0 101 2 116 20
132 17 15 24 16 45 7 25 -11 25 -13 25 -132 l0 -120 50 0 50 0 0 113 c0 108 1
115 25 137 24 23 25 23 45 5 18 -16 20 -31 20 -137 l0 -118 60 0 60 0 0 148 0
148 -48 47 c-43 42 -52 47 -93 47 -37 0 -50 -5 -74 -30 -16 -16 -34 -30 -40
-30 -6 0 -24 14 -40 30 -25 26 -36 30 -80 30 -47 0 -54 -3 -98 -48z"/>
<path d="M1343 478 c-51 -50 -93 -96 -93 -102 0 -6 42 -53 93 -104 83 -83 96
-92 130 -92 l37 0 0 80 0 80 -24 -15 c-23 -15 -25 -14 -55 15 -34 35 -32 54
12 83 23 15 26 14 56 -17 30 -31 31 -34 31 -129 l0 -97 60 0 60 0 0 113 0 112
-83 83 c-59 59 -89 82 -107 82 -18 0 -51 -26 -117 -92z"/>
</g>
</svg>
